<svg width="512" height="512" viewBox="0 0 100 100" xmlns="http://www.w3.org/2000/svg" version="1.1">
  <rect width="100" height="100" rx="22" ry="22" fill="#ffffff"/>
  
  <rect x="20" y="25" width="60" height="55" rx="8" ry="8" fill="#f3f4f6"/>
  
  <path d="M 20 33 C 20 28.5817 23.5817 25 28 25 H 72 C 76.4183 25 80 28.5817 80 33 V 40 H 20 V 33 Z" fill="#4f46e5"/>
  
  <circle cx="35" cy="25" r="3" fill="#ffffff"/>
  <circle cx="65" cy="25" r="3" fill="#ffffff"/>
  
  <path 
    d="M 75 35 C 60 55, 40 85, 25 75 C 45 70, 60 50, 75 35 Z" 
    fill="#111827" 
    transform="rotate(-15, 50, 55)"
  />
  <path 
    d="M 45 78 L 50 65 L 55 75 Z" 
    fill="#111827" 
    transform="rotate(-15, 50, 55)"
  />
</svg>