<svg width="512" height="512" viewBox="0 0 100 100" xmlns="http://www.w3.org/2000/svg" version="1.1">
  <rect width="100" height="100" rx="22" ry="22" fill="#f1f5f9"/>

  <rect x="25" y="30" width="55" height="50" rx="8" ry="8" fill="#ffffff" stroke="#e2e8f0" stroke-width="2"/>

  <rect x="40" y="22" width="6" height="12" rx="3" ry="3" fill="#cbd5e1"/>
  <rect x="60" y="22" width="6" height="12" rx="3" ry="3" fill="#cbd5e1"/>

  <rect x="33" y="48" width="8" height="8" rx="2" fill="#e2e8f0"/>
  <rect x="47" y="48" width="8" height="8" rx="2" fill="#e2e8f0"/>
  <rect x="61" y="48" width="8" height="8" rx="2" fill="#e2e8f0"/>
  <rect x="33" y="62" width="8" height="8" rx="2" fill="#e2e8f0"/>
  <rect x="47" y="62" width="8" height="8" rx="2" fill="#e2e8f0"/>
  <rect x="61" y="62" width="8" height="8" rx="2" fill="#e2e8f0"/>

  <path d="M 35 85 Q 50 40 85 35 C 70 55 60 75 55 90 L 35 85 Z" fill="#4f46e5" transform="rotate(10, 60, 60)"/>
  <path d="M 55 90 L 53 75 L 59 77 L 55 90 Z" fill="#4f46e5" transform="rotate(10, 60, 60)"/>
  <path d="M 59 77 L 57 65 L 63 67 L 59 77 Z" fill="#4f46e5" transform="rotate(10, 60, 60)"/>
</svg>